<svg width="133" height="34" viewBox="0 0 133 34" fill="none" xmlns="http://www.w3.org/2000/svg">
<path fill-rule="evenodd" clip-rule="evenodd" d="M10.5777 0.00836429C10.2274 0.038071 9.20732 0.222222 8.78146 0.33266C7.93586 0.551894 7.13088 0.844539 6.48806 1.16643C4.24424 2.28995 2.46028 4.00226 1.3913 6.05843C0.685043 7.41697 0.439495 8.1466 0.143807 9.76556C0.101653 9.99627 0.0475748 10.5288 0.0236125 10.9489C-0.146379 13.9308 0.588925 16.2689 2.63777 19.2611C4.0504 21.3242 4.66039 22.9192 4.86176 25.0765C4.9453 25.9716 5.08036 26.323 5.47331 26.6682C5.56775 26.7511 5.76166 26.8774 5.90429 26.9488L6.16356 27.0786L11.5904 27.09C15.6632 27.0985 17.0745 27.09 17.2466 27.0561C17.5527 26.9957 17.9558 26.783 18.138 26.5857C18.4639 26.233 18.5616 25.9709 18.6394 25.2407C18.7398 24.2988 18.8061 23.8507 18.9096 23.4157C19.2219 22.1034 19.7759 20.8931 20.7243 19.4517C21.6159 18.0966 21.9712 17.5143 22.2863 16.8918C22.959 15.5628 23.2805 14.5395 23.4827 13.0833C23.5772 12.402 23.577 10.9634 23.4822 10.2422C23.1818 7.95688 22.4584 6.18893 21.0945 4.40767C20.3752 3.46815 19.2004 2.43272 18.0874 1.75721C16.9228 1.05031 15.5374 0.48432 14.4134 0.256162C13.3154 0.0332661 13.0973 0.0112624 11.8962 0.00230075C11.2656 -0.00238978 10.6723 0.000317924 10.5777 0.00836429ZM10.6159 1.07548C9.79831 1.14862 8.62756 1.43143 7.77596 1.76156C4.74603 2.9361 2.43552 5.4116 1.47993 8.50712C1.20278 9.40496 1.02327 10.6366 1.02334 11.64C1.02354 13.3162 1.38985 14.8574 2.15114 16.3845C2.53316 17.1507 2.65022 17.3408 3.72333 18.9369C4.18821 19.6283 4.38901 19.9666 4.67262 20.5359C5.45027 22.0968 5.77966 23.2942 5.89554 24.9812C5.92971 25.4788 5.97862 25.6579 6.1279 25.8319C6.24168 25.9645 6.28895 25.9891 6.50064 26.0259C6.77909 26.0743 7.6305 26.0818 7.702 26.0365C7.74003 26.0124 7.74794 25.2415 7.74022 22.3094L7.73048 18.6128L7.35759 18.6059C6.81746 18.596 6.51413 18.4469 6.35568 18.1138C6.30458 18.0063 6.29251 17.7139 6.27512 16.1645C6.26384 15.162 6.24691 14.3074 6.23747 14.2654C6.22803 14.2235 6.15595 14.145 6.07726 14.0911C5.99861 14.0372 5.88285 13.9189 5.82002 13.8281C5.71389 13.6747 5.7048 13.6342 5.69199 13.2587L5.6782 12.8544L5.80844 12.666C5.95906 12.4482 6.23449 12.2451 6.46307 12.1835C6.79679 12.0935 7.22398 12.2105 7.51317 12.4712C7.68179 12.6232 7.84647 12.9179 7.81238 13.0065C7.80068 13.0369 7.8076 13.0719 7.8277 13.0843C7.88996 13.1227 7.86802 13.4326 7.78788 13.6463C7.70625 13.864 7.48967 14.132 7.39539 14.132C7.36389 14.132 7.32774 14.1705 7.31505 14.2178C7.28047 14.3465 7.28742 17.385 7.32243 17.44C7.342 17.4708 7.50075 17.4958 7.77091 17.5106C8.29269 17.5393 8.43762 17.5748 8.57149 17.7071C8.81326 17.9461 8.79869 17.6909 8.81968 22.0639L8.83878 26.049H9.24007H9.64135V18.4424V10.8358L9.24007 10.7893C8.70082 10.7269 8.39298 10.6333 7.9928 10.4102C7.57635 10.1779 7.11575 9.73608 7.07738 9.53199C7.01692 9.21047 7.16501 8.94872 7.4479 8.87706C7.57921 8.84381 7.61437 8.85045 7.7333 8.93099C7.80791 8.98148 7.93238 9.08436 8.00992 9.15956C8.22803 9.37113 8.77286 9.61298 9.21087 9.69261C9.41552 9.72983 9.5961 9.74718 9.61215 9.73116C9.65775 9.6857 9.67001 5.69657 9.62564 5.33479C9.5778 4.94445 9.51233 4.81453 9.29384 4.67625C8.78578 4.35474 7.98997 4.51769 7.46723 5.05027C7.13929 5.38441 6.98038 5.65238 6.8446 6.10027C6.77955 6.31477 6.77122 6.30101 7.10444 6.52943C7.46777 6.77856 7.54012 6.90422 7.52414 7.25826C7.51833 7.38765 7.23021 7.6491 7.09347 7.6491C7.03198 7.6491 6.85774 7.58171 6.70636 7.49938C6.15687 7.20056 5.75807 7.18359 5.31807 7.44031C5.14663 7.54034 4.81712 7.89953 4.71588 8.09676C4.54042 8.43848 4.50427 9.04318 4.63134 9.51029C4.71175 9.80579 4.72054 9.81151 5.04382 9.77856C5.8548 9.69589 5.9756 9.69463 6.09924 9.7675C6.22711 9.84286 6.32235 10.0184 6.27599 10.0933C6.25769 10.1228 6.26331 10.1297 6.2914 10.1124C6.31566 10.0974 6.33554 10.1024 6.33554 10.1233C6.33554 10.1443 6.3191 10.1716 6.299 10.184C6.2789 10.1964 6.27214 10.2318 6.28402 10.2626C6.32572 10.3711 6.25884 10.4992 6.10872 10.5983C5.97377 10.6875 5.92115 10.6983 5.63161 10.6961C5.24542 10.6933 4.85037 10.8024 4.58055 10.9865C4.29881 11.1787 3.95298 11.6346 3.85476 11.9433C3.59725 12.7526 3.70633 13.6669 4.14896 14.4094C4.34869 14.7444 4.75899 15.1915 5.07566 15.4192C5.40246 15.6542 5.53297 15.8212 5.53297 16.0044C5.53297 16.3787 5.23957 16.6073 4.90188 16.4961C4.57914 16.3899 3.79679 15.6603 3.40487 15.1001C3.07773 14.6325 2.81758 13.9364 2.72418 13.2787C2.5689 12.1857 2.9153 11.1376 3.67675 10.3964C3.77283 10.3029 3.8514 10.2052 3.8514 10.1793C3.8514 10.1534 3.81888 10.0754 3.77917 10.0061C3.64797 9.77696 3.57356 9.25639 3.5984 8.74108C3.61067 8.48657 3.62741 8.23541 3.63559 8.18298C3.64376 8.13054 3.65294 8.05332 3.65596 8.01137C3.66062 7.94693 3.66769 7.94395 3.70143 7.99231C3.73094 8.03456 3.73472 8.01591 3.71588 7.9208C3.69823 7.83184 3.70327 7.80007 3.73224 7.81792C3.75647 7.83287 3.76671 7.82284 3.75658 7.79408C3.73598 7.73566 3.97416 7.29712 4.13669 7.0942C4.31307 6.87398 4.73235 6.55483 5.01073 6.42887C5.1498 6.36595 5.38442 6.2938 5.53205 6.26852C5.76419 6.22882 5.80049 6.21181 5.80049 6.1429C5.80049 5.97759 6.00366 5.36908 6.15206 5.08989C6.53408 4.37125 7.413 3.65467 8.03622 3.55369C8.05724 3.55029 8.09614 3.53397 8.1227 3.51742C8.17216 3.48657 8.93589 3.41541 8.97533 3.43795C8.98737 3.44485 9.10203 3.46731 9.23009 3.4879C9.55949 3.54083 9.85804 3.69425 10.1354 3.95314C10.4132 4.21246 10.5914 4.52043 10.6508 4.8437C10.68 5.00268 10.6933 8.13142 10.6957 15.3688C10.6975 21.0331 10.7104 25.7534 10.7244 25.8583L10.7497 26.049L11.1027 26.0599L11.4558 26.0709L11.4658 19.844L11.4758 13.6171L11.5976 13.3693C11.807 12.9432 12.1294 12.689 12.5648 12.6066C12.6757 12.5856 13.3463 12.5684 14.0551 12.5684H15.3436L15.3634 12.1776C15.3742 11.9626 15.3794 11.5207 15.3749 11.1956L15.3666 10.6045L15.1269 10.3691C14.861 10.1081 14.8245 10.0108 14.8215 9.55376C14.8186 9.12067 15.0679 8.75107 15.4504 8.62114C15.9438 8.45362 16.3929 8.5345 16.6961 8.84553C16.8879 9.04215 17.0328 9.3624 17.0349 9.59395C17.0371 9.85197 16.8625 10.1878 16.6157 10.4L16.4133 10.574L16.4217 11.56C16.4263 12.1022 16.4386 12.5596 16.4489 12.5763C16.4592 12.5929 16.5753 12.6066 16.7069 12.6066C16.8385 12.6066 17.0316 12.6319 17.1361 12.6629C17.6968 12.829 17.83 13.5629 17.3638 13.9177C17.138 14.0896 17.009 14.1249 16.7221 14.0937C16.4464 14.0637 16.382 14.0322 16.1013 13.7898L15.9198 13.633L14.3666 13.6441C12.7137 13.656 12.6382 13.6643 12.5773 13.8422C12.5622 13.8862 12.553 16.0072 12.5568 18.5555C12.5606 21.1039 12.564 23.8367 12.5644 24.6285L12.565 26.068H12.9281H13.2911L13.2935 23.351C13.2948 21.8566 13.3044 20.5567 13.3148 20.4623C13.34 20.2337 13.4881 20.0542 13.7308 19.9582C13.8935 19.8938 13.9924 19.8846 14.3994 19.896L14.8771 19.9093L14.8874 18.9454L14.8976 17.9814L14.707 17.8063C14.4315 17.553 14.3432 17.3503 14.3444 16.973C14.3455 16.619 14.3961 16.4976 14.6473 16.2469C14.8679 16.0269 15.0838 15.9229 15.3707 15.8988C15.7947 15.8632 16.2069 16.1141 16.4323 16.545C16.4978 16.6703 16.5162 16.7694 16.5151 16.992C16.513 17.4238 16.4105 17.6056 15.9759 17.9488C15.9397 17.9774 15.9281 18.2502 15.9281 19.077C15.9281 19.8025 15.9131 20.2175 15.8832 20.3171C15.8308 20.4917 15.5875 20.7821 15.4221 20.8674C15.3463 20.9065 15.1431 20.9354 14.8269 20.952L14.3468 20.9771L14.3568 23.494C14.3623 24.8782 14.3804 26.0248 14.3969 26.0418C14.4135 26.0587 15.0184 26.0673 15.7413 26.0608C17.2538 26.0472 17.2693 26.0441 17.469 25.7189C17.5694 25.5554 17.5823 25.4902 17.6313 24.899C17.7066 23.989 17.7498 23.7069 17.9196 23.0173C18.2964 21.4865 18.8608 20.2917 19.996 18.6208C21.1146 16.9743 21.4045 16.4495 21.9327 15.1141C22.0415 14.839 22.2194 14.168 22.3245 13.6362C22.4907 12.7953 22.5417 11.7139 22.4628 10.7016C22.4264 10.2348 22.2783 9.35912 22.1787 9.02194C22.1508 8.92755 22.0894 8.71305 22.0422 8.54526C21.7338 7.44714 21.05 6.12971 20.2511 5.09409C19.9134 4.65638 19.0558 3.80198 18.569 3.41842C17.0057 2.18638 15.3533 1.46514 13.4058 1.16487C13.0001 1.10233 12.6652 1.08261 11.8389 1.0727C11.2608 1.06579 10.7105 1.06701 10.6159 1.07548ZM14.5905 3.45431C14.1021 3.49549 13.6993 3.66195 13.3347 3.97343C13.144 4.1363 13.0362 4.29838 12.9065 4.61741L12.8134 4.84621V8.37365V11.9011L12.9024 12.0256C13.0058 12.1703 13.1672 12.2634 13.3145 12.2634C13.4448 12.2634 13.7326 12.0976 13.7968 11.9857C13.8346 11.9198 13.8495 11.1428 13.8644 8.46899C13.8784 5.95139 13.8954 5.01656 13.9281 4.96062C14.0038 4.83138 14.2207 4.64315 14.3612 4.58484C14.7043 4.44245 15.1938 4.49073 15.6439 4.71133C16.065 4.91772 16.4775 5.43894 16.6384 5.9679C16.7355 6.28693 16.7208 6.32785 16.4465 6.50072C15.9972 6.78383 15.8721 6.99589 15.9831 7.28594C16.0538 7.47078 16.2811 7.6491 16.4459 7.6491C16.5004 7.6491 16.6203 7.59735 16.7124 7.53412C17.1382 7.24178 17.5499 7.18084 17.991 7.34482C18.1831 7.41621 18.2951 7.49263 18.4912 7.68597C18.7077 7.89937 18.7612 7.98068 18.8647 8.25296C19.0246 8.67365 19.033 9.0786 18.8901 9.48645C18.8377 9.63628 18.7855 9.76815 18.7741 9.77944C18.7628 9.79073 18.6295 9.77509 18.4778 9.74462C18.1043 9.66965 17.9814 9.68734 17.82 9.8392C17.698 9.9541 17.6861 9.98411 17.6861 10.1787C17.6861 10.3624 17.7024 10.4106 17.803 10.5249C17.8956 10.6301 17.957 10.6623 18.0992 10.6799C18.5843 10.7398 18.9229 10.9031 19.2087 11.2153C19.5695 11.6091 19.7527 12.0688 19.8088 12.721C19.8564 13.274 19.6222 14.0494 19.2365 14.6157C19.115 14.7942 18.6657 15.2581 18.4945 15.3818C18.0834 15.679 17.9925 15.8041 17.9921 16.0732C17.9919 16.2208 18.0112 16.2595 18.1509 16.3921C18.2994 16.5331 18.3218 16.5418 18.492 16.5255C18.6335 16.5119 18.7277 16.4682 18.9152 16.3292C19.2292 16.0964 19.6387 15.697 19.8582 15.4095C19.9543 15.2836 20.0425 15.1721 20.0542 15.1616C20.1015 15.1191 20.2837 14.8185 20.3925 14.6035C20.6268 14.1404 20.7843 13.6092 20.815 13.1786C20.8959 12.0435 20.6466 11.2515 19.9861 10.5453C19.6613 10.1979 19.6599 10.1956 19.7085 10.0762C19.9112 9.57775 19.9201 9.5247 19.9196 8.8122C19.9191 8.16616 19.9133 8.11064 19.8202 7.86867C19.486 6.99932 18.7661 6.38898 17.9273 6.26371C17.7497 6.23721 17.7313 6.2168 17.7046 6.01797C17.6748 5.79618 17.5244 5.34009 17.401 5.09702C17.1326 4.56852 16.5987 4.04501 16.0202 3.74302C15.7088 3.58046 15.6139 3.55235 15.0109 3.44409C14.9584 3.43467 14.7692 3.43924 14.5905 3.45431ZM129.874 4.16681C128.75 4.2644 127.709 5.13096 127.387 6.23812C127.286 6.58419 127.285 7.33003 127.385 7.72537C127.581 8.49827 128.101 9.14176 128.861 9.55075C129.263 9.76697 129.579 9.83626 130.16 9.83542C130.722 9.83462 130.997 9.77311 131.422 9.55277C132.194 9.15274 132.78 8.40015 132.936 7.60784C133.106 6.74752 132.938 5.98663 132.431 5.31027C132.073 4.83298 131.545 4.44748 131.02 4.27973C130.842 4.22272 130.212 4.13379 130.084 4.14744C130.052 4.15079 129.958 4.15953 129.874 4.16681ZM62.3509 7.60726L62.1293 7.63003L62.1216 10.2232L62.114 12.8163L61.1012 12.8354L60.0884 12.8544L60.1021 14.6658C60.1095 15.6621 60.122 16.4839 60.1298 16.4922C60.1375 16.5004 60.5713 16.5036 61.0936 16.4993C61.8471 16.4931 62.0521 16.502 62.0857 16.5425C62.1157 16.5785 62.133 17.488 62.1449 19.6433C62.1604 22.4718 62.1672 22.7277 62.2387 23.1698C62.5758 25.2534 63.5124 26.4904 65.1525 27.0182C66.2989 27.3871 68.1322 27.336 69.3753 26.9006C69.6426 26.807 70.3923 26.4874 70.4395 26.4469C70.4688 26.4218 70.2016 25.4871 69.8132 24.2566C69.7734 24.1308 69.6436 23.7104 69.5246 23.3224C69.4056 22.9343 69.3023 22.6101 69.2949 22.6018C69.2875 22.5936 69.1594 22.6413 69.0103 22.7078C68.3313 23.0108 67.762 23.0154 67.4664 22.7206C67.3066 22.5611 67.166 22.2813 67.0756 21.9428C67.019 21.7307 67.0094 21.3901 66.9968 19.1209L66.9823 16.5401L67.3189 16.5243C67.5041 16.5156 68.1659 16.5101 68.7898 16.5119L69.9241 16.5154L69.9363 16.2293C69.9431 16.072 69.9432 15.2441 69.9367 14.3894L69.9248 12.8354H68.4568H66.9888L66.9782 10.2454C66.9724 8.82089 66.9533 7.64113 66.9358 7.62366C66.8995 7.58747 62.6898 7.57241 62.3509 7.60726ZM5.78138 10.3948C5.79438 10.4158 5.8222 10.4329 5.84322 10.4329C5.86424 10.4329 5.87081 10.4158 5.85782 10.3948C5.84483 10.3738 5.817 10.3566 5.79598 10.3566C5.77496 10.3566 5.76839 10.3738 5.78138 10.3948ZM35.7248 12.472C35.6933 12.4795 35.4869 12.5067 35.2662 12.5323C34.1018 12.6677 32.9619 13.2067 32.0182 14.0683C31.7977 14.2695 31.6046 14.4214 31.5891 14.4059C31.5735 14.3904 31.5561 14.0349 31.5504 13.6161L31.54 12.8544L29.2278 12.8439C27.9561 12.8381 26.8769 12.8427 26.8297 12.8542L26.7437 12.875V23.4375V34H29.1703H31.597L31.6067 29.7877L31.6164 25.5755L31.9611 25.8313C32.6062 26.3101 32.7191 26.3827 33.1619 26.6038C34.7111 27.3776 36.9249 27.4973 38.6102 26.8983C39.8791 26.4472 40.8246 25.715 41.7747 24.4476C42.3174 23.7236 42.7915 22.6809 43.0028 21.7466C43.0459 21.5563 43.1169 21.6594 43.2368 22.0862C43.7161 23.792 44.7808 25.2939 46.1624 26.2131C47.5248 27.1196 49.0327 27.4287 50.9322 27.1909C51.5944 27.1079 52.1206 26.9454 52.7685 26.6237C53.2475 26.3858 53.5621 26.1689 54.0967 25.708C54.3536 25.4865 54.5814 25.3053 54.6031 25.3053C54.6288 25.3053 54.6425 25.576 54.6425 26.0871V26.8689H57.031H59.4196V19.8521V12.8354H57.1702C55.9329 12.8354 54.8413 12.8462 54.7442 12.8595L54.5678 12.8837L54.5573 13.5317L54.5469 14.1798L54.2221 13.922C53.2224 13.1287 52.3513 12.7384 51.1456 12.5434C50.5792 12.4519 49.4674 12.4345 48.9289 12.5088C48.0941 12.624 47.5342 12.793 46.842 13.1388C45.1244 13.9968 43.8581 15.5968 43.2341 17.6975C43.178 17.8863 43.118 18.0555 43.1007 18.0736C43.0834 18.0918 42.9738 17.8086 42.8572 17.4444C42.5711 16.551 42.231 15.8738 41.7394 15.2188C40.6171 13.7233 39.2697 12.8662 37.5401 12.5474C37.2288 12.49 35.884 12.4342 35.7248 12.472ZM76.1207 12.5313C74.4032 12.7818 72.9275 13.5565 71.6459 14.8806C70.3114 16.2592 69.6226 17.9465 69.6241 19.8331C69.6258 22.1069 70.4667 23.8938 72.2626 25.4398C72.9739 26.0521 73.7753 26.5267 74.6029 26.8257C75.5313 27.1611 76.2003 27.2665 77.3819 27.2633C78.6875 27.2598 79.6654 27.1214 80.6243 26.8046C82.231 26.2737 83.4664 25.353 84.3818 24.0045L84.6306 23.638L82.9266 22.7925C81.9895 22.3275 81.1996 21.9476 81.1714 21.9483C81.1432 21.9489 80.9798 22.0799 80.8083 22.2392C80.4231 22.5973 79.9579 22.9507 79.7008 23.0807C79.5939 23.1348 79.3079 23.2304 79.0652 23.2932C78.6516 23.4003 78.576 23.4078 77.8596 23.4126L77.0952 23.4177L76.6482 23.2716C75.8796 23.0204 75.271 22.5475 74.9677 21.9658C74.8271 21.6962 74.695 21.2041 74.6486 20.7769L74.6227 20.5385L75.6679 20.5327C76.2427 20.5294 78.4672 20.5274 80.6112 20.5281C82.7552 20.5289 84.5936 20.521 84.6965 20.5107L84.8835 20.4919L84.8611 19.5904C84.8486 19.0907 84.8129 18.5276 84.7808 18.3267C84.5308 16.7587 83.8453 15.3557 82.8967 14.4704C82.6366 14.2278 81.8927 13.6823 81.5557 13.4873C80.9349 13.1279 80.2003 12.8459 79.4171 12.6661C78.4973 12.455 77.0498 12.3958 76.1207 12.5313ZM93.9503 12.5146C92.9518 12.6694 91.9192 13.189 91.0446 13.9766C90.8344 14.1659 90.6516 14.3213 90.6383 14.3217C90.5852 14.3237 90.5679 14.1222 90.5674 13.4943L90.5669 12.8376L88.2261 12.8368C86.9386 12.8363 85.8466 12.8464 85.7993 12.8591L85.7133 12.8824V19.8756V26.8689H88.1401H90.5669V22.9997C90.5669 20.4612 90.5813 18.9956 90.6087 18.7382C90.652 18.3321 90.7907 17.9041 90.9566 17.6643C91.4667 16.927 92.0814 16.4681 92.804 16.2853C93.3036 16.1588 93.6966 16.1594 94.1387 16.2872C94.5365 16.4022 94.6931 16.4785 94.9547 16.6849C95.5129 17.1252 95.8592 17.7728 95.9544 18.5546C95.9791 18.7572 95.9938 20.3673 95.9938 22.8733V26.8689H98.4206H100.847L100.847 22.2451C100.847 19.4917 100.831 17.4439 100.809 17.1827C100.718 16.1401 100.491 15.4904 99.9679 14.7792C99.2982 13.8683 98.4968 13.309 97.2431 12.8776C96.1713 12.5089 94.8949 12.3681 93.9503 12.5146ZM115.269 12.531C113.561 12.7889 112.126 13.662 111.031 15.1088C110.283 16.098 109.898 16.9533 109.641 18.1933C109.439 19.1663 109.432 20.4852 109.622 21.4728C109.843 22.6254 110.293 23.6564 110.969 24.5583C111.866 25.7569 112.847 26.4933 114.118 26.9244C114.859 27.1754 115.866 27.3167 116.593 27.2713C117.93 27.1879 118.671 26.9879 119.568 26.4684C120.031 26.2002 120.14 26.1228 120.472 25.8271C120.804 25.5321 121.083 25.3053 121.116 25.3053C121.13 25.3053 121.141 25.6571 121.141 26.0871V26.8689H123.529H125.918V19.8521V12.8354L123.635 12.8358C122.379 12.836 121.287 12.8469 121.208 12.8599L121.064 12.8835V13.5077C121.064 13.8639 121.049 14.132 121.029 14.132C121.01 14.132 120.945 14.0918 120.886 14.0426C120.071 13.3683 119.23 12.9174 118.389 12.7028C118.105 12.6304 117.67 12.5448 117.422 12.5126C116.813 12.4335 115.86 12.4416 115.269 12.531ZM127.819 12.8634L127.638 12.8777L127.647 19.8638L127.657 26.8498L130.07 26.8596L132.483 26.8694L132.505 26.7071C132.517 26.6178 132.519 24.0307 132.51 20.958C132.501 17.8853 132.493 14.8008 132.492 14.1034L132.491 12.8354L130.246 12.8422C129.011 12.846 127.919 12.8556 127.819 12.8634ZM76.8277 15.6171C76.1869 15.7518 75.882 15.901 75.4924 16.2703C75.167 16.5786 74.9826 16.9049 74.8597 17.389C74.7572 17.7925 74.7595 17.8168 74.9025 17.8453C75.0524 17.8752 80.1128 17.8771 80.1427 17.8472C80.1885 17.8016 79.9729 17.1223 79.8184 16.8252C79.4089 16.038 78.6247 15.5957 77.573 15.5588C77.28 15.5486 77.0788 15.5643 76.8277 15.6171ZM34.1388 16.6066C33.3172 16.7592 32.7329 17.1027 32.2177 17.7357C31.9484 18.0665 31.7461 18.4595 31.6286 18.8797C31.5175 19.2771 31.4904 20.1557 31.5762 20.5782C31.7161 21.267 32.0119 21.806 32.5181 22.2942C33.1614 22.9147 33.9806 23.2033 34.9729 23.1592C35.5413 23.1339 35.7836 23.0725 36.2837 22.8274C36.8703 22.5398 37.4168 22.0001 37.7112 21.4177C37.8889 21.0661 37.9366 20.9133 37.9999 20.4925C38.1649 19.3965 37.9513 18.428 37.3918 17.7357C37.1973 17.495 36.7411 17.083 36.5656 16.9895C35.8634 16.6156 34.905 16.4643 34.1388 16.6066ZM50.7634 16.6081C50.0784 16.7289 49.4821 17.0393 49.0165 17.5173C48.3778 18.1731 48.0986 18.8994 48.0972 19.9093C48.0957 20.923 48.42 21.7038 49.1122 22.3535C49.4584 22.6785 49.9056 22.9205 50.4194 23.061C50.8283 23.1727 51.8794 23.185 52.2852 23.0828C52.6208 22.9983 53.1858 22.7151 53.4699 22.489C53.9723 22.0892 54.3816 21.4405 54.5505 20.776C54.6834 20.2534 54.6821 19.4916 54.5475 18.9621C54.3987 18.3769 54.1908 18.0002 53.7779 17.5677C53.2375 17.0016 52.7267 16.7359 51.9304 16.6062C51.4014 16.5201 51.2609 16.5203 50.7634 16.6081ZM117.625 16.5528C117.593 16.5603 117.43 16.5875 117.262 16.6132C116.721 16.6958 116.257 16.9067 115.779 17.287C115.264 17.697 114.943 18.1942 114.733 18.9052C114.639 19.2265 114.628 19.3203 114.627 19.8712C114.626 20.332 114.642 20.542 114.692 20.7292C115.112 22.3081 116.263 23.1715 117.945 23.1693C119.136 23.1678 120.111 22.625 120.718 21.6254C121.273 20.7122 121.314 19.2903 120.816 18.3027C120.374 17.4291 119.595 16.8319 118.638 16.634C118.368 16.5784 117.732 16.5273 117.625 16.5528ZM104.65 21.1456C104.132 21.2765 103.654 21.5476 103.242 21.9444C102.787 22.3828 102.511 22.8656 102.372 23.4647C102.302 23.7684 102.293 23.8922 102.312 24.3057C102.336 24.8364 102.406 25.1364 102.604 25.5508C102.934 26.2409 103.706 26.9059 104.459 27.1486C104.743 27.2401 105.411 27.2922 105.765 27.2504C106.848 27.1227 107.742 26.4934 108.216 25.525C108.68 24.578 108.63 23.4843 108.079 22.5473C107.926 22.2865 107.478 21.802 107.238 21.6369C106.937 21.4306 106.485 21.2288 106.147 21.1501C105.716 21.0499 105.037 21.0479 104.65 21.1456ZM7.53939 28.1273C6.58338 28.1437 6.41442 28.1554 6.30989 28.2125C6.06767 28.3447 5.91981 28.6633 5.9865 28.9091C6.04505 29.1247 6.23304 29.3378 6.40444 29.3828C6.58028 29.4289 16.6253 29.4374 16.9096 29.3917C17.065 29.3667 17.1306 29.3328 17.2153 29.2337C17.38 29.041 17.394 29.0041 17.3964 28.7572C17.3991 28.4875 17.3128 28.3417 17.0696 28.2053L16.9184 28.1205L12.7831 28.1144C10.5086 28.111 8.14896 28.1168 7.53939 28.1273ZM36.6092 28.6655C36.2953 28.7257 35.7832 28.9186 35.7258 28.9981C35.7147 29.0135 35.6541 29.0655 35.591 29.1136C35.2699 29.3587 34.9778 29.8745 34.9295 30.2819C34.8705 30.7792 34.9425 31.2778 35.1219 31.6139C35.3399 32.0225 35.7745 32.3785 36.2676 32.5525C36.5672 32.6582 36.611 32.6635 37.0624 32.6489C37.4466 32.6365 37.5943 32.6147 37.8167 32.5374C38.3209 32.3623 38.7464 31.9727 38.9627 31.4882C39.0666 31.2553 39.1149 30.9323 39.0517 30.8932C39.0263 30.8776 39.0338 30.8364 39.0726 30.7771C39.1213 30.703 39.1277 30.628 39.1057 30.3883C39.0241 29.4987 38.3519 28.7995 37.4446 28.6604C37.033 28.5973 36.9627 28.5977 36.6092 28.6655ZM99.8729 28.6117C99.5247 28.6544 99.176 28.7506 98.9404 28.869C98.6403 29.0198 98.2717 29.3722 98.1164 29.6567C97.8403 30.1626 97.8164 30.9638 98.0609 31.5178C98.3207 32.1067 98.9906 32.5753 99.6862 32.6547C100.846 32.787 101.807 32.1745 102.046 31.1495C102.094 30.9451 102.094 30.9111 102.048 30.9111C102.018 30.9111 101.994 30.8921 101.994 30.8689C101.994 30.8457 102.019 30.8361 102.049 30.8477C102.128 30.8782 102.136 30.7558 102.08 30.3582C101.98 29.646 101.561 29.0725 100.957 28.8222C100.608 28.6777 100.115 28.582 99.8729 28.6117ZM124.351 28.6701C123.853 28.753 123.552 28.894 123.229 29.196C122.951 29.4553 122.82 29.6759 122.711 30.0715C122.522 30.7497 122.67 31.4815 123.091 31.9537C123.456 32.3637 124.03 32.6496 124.524 32.6674C124.79 32.6771 125.347 32.6296 125.402 32.5924C125.423 32.5783 125.509 32.544 125.593 32.5161C126.221 32.3078 126.688 31.7394 126.811 31.0321C126.958 30.1831 126.655 29.4229 125.995 28.9876C125.507 28.6664 124.983 28.565 124.351 28.6701ZM41.0655 28.6533C40.9082 28.6637 40.8884 28.6741 40.9183 28.73C40.9467 28.7831 41.9726 31.8586 42.1706 32.4842L42.2279 32.6653L42.5019 32.6647C42.6526 32.6644 42.7938 32.6515 42.8156 32.6361C42.8373 32.6207 42.9873 32.2134 43.1487 31.731C43.7302 29.9937 43.869 29.5952 43.9197 29.5181C43.9479 29.475 43.9779 29.4061 43.9863 29.3651C43.9946 29.324 44.0288 29.4191 44.0622 29.5764C44.0957 29.7337 44.3363 30.4888 44.597 31.2543L45.0709 32.6462L45.3572 32.6572L45.6435 32.6682L45.6924 32.5428C45.7193 32.4739 45.8117 32.2029 45.8979 31.9407C45.984 31.6786 46.2653 30.8334 46.523 30.0626C46.8016 29.2291 46.9736 28.66 46.9474 28.6582C46.9232 28.6566 46.869 28.648 46.827 28.639C46.6843 28.6084 46.5156 28.66 46.4717 28.7476C46.4208 28.849 46.2117 29.4589 45.7527 30.8444C45.5668 31.4054 45.4018 31.8645 45.3859 31.8645C45.3098 31.8645 45.1331 31.4039 44.7058 30.0912C44.2659 28.7401 44.2581 28.7196 44.1655 28.6713C44.0295 28.6002 43.811 28.6115 43.7367 28.6934C43.7017 28.732 43.5207 29.2082 43.3347 29.7516C43.1486 30.2949 42.9586 30.8425 42.9125 30.9683C42.8664 31.0942 42.797 31.2915 42.7582 31.4069C42.6602 31.6988 42.5908 31.8645 42.5667 31.8645C42.5412 31.8645 42.5593 31.9154 41.9575 30.1517C41.6826 29.346 41.4529 28.6821 41.4471 28.6763C41.4239 28.6531 41.2371 28.6419 41.0655 28.6533ZM49.292 28.6573L49.1965 28.6839L49.2023 29.6354C49.2054 30.1588 49.2097 31.0557 49.2118 31.6285L49.2156 32.6701L49.4544 32.6581L49.6933 32.6462L49.7002 32.017C49.704 31.6709 49.7083 31.0024 49.7097 30.5314L49.7124 29.6749L49.8869 29.8449C50.0533 30.007 50.637 30.7136 51.4608 31.7501C51.6691 32.0122 51.9302 32.3254 52.041 32.446C52.2337 32.6558 52.2505 32.6653 52.4297 32.6653H52.6169V30.6658C52.6169 28.6685 52.6169 28.6663 52.5367 28.6409C52.4023 28.5984 52.1303 28.6562 52.1106 28.7315C52.101 28.7683 52.097 29.4367 52.1018 30.217C52.1065 30.9973 52.1005 31.6357 52.0883 31.6357C52.0543 31.6357 51.8435 31.3915 51.4879 30.9404C51.3105 30.7153 51.1323 30.4922 51.0919 30.4446C51.0515 30.3971 50.749 30.0235 50.4197 29.6145C49.5986 28.5947 49.5783 28.5775 49.292 28.6573ZM60.5727 28.6508C60.4384 28.6673 60.431 28.6771 59.9308 29.4914C59.3114 30.5001 59.1429 30.7574 59.114 30.7396C59.0959 30.7284 58.9586 30.5179 58.809 30.2717C58.3969 29.594 58.0338 29.0039 57.9177 28.8232L57.8135 28.6612H57.5271H57.2406L57.419 28.9377C57.5172 29.0897 57.6259 29.257 57.6606 29.3095C57.6953 29.3619 57.7816 29.5078 57.8525 29.6336C57.9233 29.7594 58.0527 29.974 58.14 30.1103C58.2274 30.2466 58.4178 30.5555 58.5631 30.7967L58.8273 31.2353L58.8392 31.9503L58.851 32.6653H59.0758C59.2104 32.6653 59.3119 32.6468 59.3291 32.6191C59.3448 32.5938 59.3609 32.2891 59.365 31.9422C59.369 31.5954 59.3896 31.2686 59.4107 31.2162C59.4318 31.1638 59.5828 30.9063 59.7462 30.6442C59.9095 30.382 60.1971 29.9101 60.3851 29.5955C60.5731 29.2809 60.7702 28.9596 60.823 28.8815C60.8758 28.8034 60.909 28.7133 60.8967 28.6813C60.8747 28.6241 60.8272 28.6196 60.5727 28.6508ZM64.386 28.6611C63.5884 28.7873 62.8865 29.4297 62.75 30.1587C62.6925 30.4655 62.6992 30.9296 62.7646 31.1816C62.8508 31.5135 62.9746 31.7411 63.2069 31.9948C63.4579 32.2688 63.6488 32.3984 63.9866 32.5239C64.9459 32.8805 66.0593 32.5813 66.5592 31.8327C66.7745 31.5103 66.8708 31.2597 66.8784 31.0019C66.8808 30.9205 66.8972 30.8255 66.915 30.7908C66.9645 30.694 66.8803 30.1339 66.7737 29.8514C66.7214 29.7128 66.6088 29.507 66.5234 29.3941C66.3391 29.1506 65.9119 28.8587 65.5641 28.7386C65.2909 28.6443 64.7269 28.6072 64.386 28.6611ZM69.1897 28.6507L69.0806 28.667L69.1009 29.9702C69.112 30.687 69.1398 31.3716 69.1626 31.4916C69.2064 31.7223 69.3721 32.0407 69.5413 32.2198C69.5971 32.2788 69.7718 32.399 69.9295 32.4867L70.2161 32.6462L70.7511 32.6454C71.27 32.6446 71.2937 32.641 71.5346 32.5262C72.0709 32.2706 72.2989 31.9482 72.3937 31.3108C72.4646 30.834 72.4783 28.682 72.4107 28.6403C72.3881 28.6264 72.2763 28.6266 72.1623 28.6408L71.955 28.6667L71.9538 29.7984C71.9522 31.3592 71.9115 31.6014 71.5992 31.9111C71.337 32.1711 70.9973 32.2642 70.5389 32.2016C70.2533 32.1626 70.0485 32.054 69.8905 31.8578C69.6309 31.5355 69.5855 31.2243 69.5855 29.7662C69.5855 28.9991 69.5731 28.7022 69.5396 28.6688C69.4944 28.6237 69.4031 28.6189 69.1897 28.6507ZM83.3725 28.6495L83.2674 28.6662V30.6658V32.6653H83.5161H83.7649L83.755 30.6537L83.7451 28.6421L83.6113 28.6374C83.5377 28.6349 83.4302 28.6403 83.3725 28.6495ZM86.3529 28.6767C86.2967 28.7328 86.2928 28.9213 86.3122 30.6733C86.324 31.7374 86.3472 32.6228 86.3638 32.6408C86.3804 32.6587 86.4812 32.6615 86.5876 32.6469C86.7672 32.6222 86.7828 32.6116 86.8031 32.4998C86.8151 32.4335 86.8199 31.7658 86.8137 31.016C86.8076 30.2661 86.812 29.6526 86.8236 29.6527C86.8763 29.6527 87.2473 30.0947 88.3201 31.4354C88.6181 31.8077 88.8718 32.1209 88.884 32.1314C88.8963 32.1419 88.9983 32.2671 89.1107 32.4096L89.3151 32.6688L89.5267 32.6575L89.7383 32.6462L89.7317 31.2353C89.7281 30.4592 89.7254 29.5707 89.7256 29.2608L89.7261 28.6974L89.6227 28.6582C89.5659 28.6366 89.4541 28.63 89.3743 28.6434L89.2293 28.6679V30.1755C89.2293 31.5369 89.2235 31.6783 89.1697 31.6338C89.1369 31.6066 88.6059 30.9567 87.9896 30.1895C87.3734 29.4223 86.834 28.7631 86.791 28.7247C86.6799 28.6252 86.4317 28.598 86.3529 28.6767ZM92.2674 28.7088C92.256 28.756 92.2513 29.6613 92.2571 30.7204L92.2676 32.6462L92.4933 32.6579C92.6371 32.6653 92.7292 32.6531 92.7469 32.6245C92.7623 32.5997 92.7745 31.9375 92.7741 31.1528C92.7738 30.3682 92.7811 29.7187 92.7902 29.7095C92.8251 29.6748 93.2495 30.1555 93.8176 30.873C94.1414 31.282 94.4156 31.6252 94.427 31.6357C94.4383 31.6462 94.5562 31.792 94.6888 31.9598C94.8215 32.1276 95.0169 32.3558 95.1229 32.467C95.3074 32.6605 95.3231 32.6686 95.4923 32.6577L95.6689 32.6462L95.6788 30.6866C95.6864 29.1834 95.6778 28.7139 95.6419 28.6707C95.585 28.6023 95.2337 28.6309 95.1857 28.7079C95.1691 28.7346 95.1592 29.4043 95.1638 30.1961C95.1692 31.1423 95.159 31.6315 95.1339 31.6235C95.0925 31.6103 94.7417 31.1885 93.8154 30.0384C92.6494 28.5908 92.6869 28.6286 92.4116 28.6248C92.3145 28.6234 92.2837 28.6413 92.2674 28.7088ZM103.714 28.6615C103.714 28.6871 103.774 28.8364 103.847 28.9931C103.921 29.1499 103.981 29.2848 103.981 29.293C103.981 29.3076 104.48 30.4453 104.649 30.8158C104.809 31.1649 104.86 31.2847 104.86 31.3061C104.86 31.3178 104.948 31.5211 105.055 31.758C105.162 31.9948 105.283 32.2658 105.323 32.3602C105.449 32.6532 105.439 32.6453 105.727 32.6573L105.994 32.6684L106.153 32.3266C106.241 32.1387 106.313 31.9751 106.313 31.963C106.313 31.951 106.39 31.7771 106.484 31.5764C106.579 31.3758 106.656 31.2009 106.656 31.1878C106.656 31.1747 106.689 31.0942 106.73 31.009C106.837 30.7828 107.295 29.728 107.462 29.3232C107.541 29.1316 107.634 28.9198 107.669 28.8527C107.767 28.664 107.724 28.61 107.493 28.632C107.373 28.6436 107.273 28.6779 107.23 28.7226C107.191 28.7622 107.08 28.9834 106.983 29.2141C106.603 30.1146 105.795 31.8739 105.758 31.8786C105.706 31.8854 105.532 31.5324 105.113 30.5679C104.708 29.6367 104.668 29.5459 104.439 29.033L104.273 28.6612H104.054C103.933 28.6612 103.807 28.6508 103.774 28.638C103.739 28.6247 103.714 28.6347 103.714 28.6615ZM111.179 28.651C111.07 28.6587 110.965 28.6855 110.945 28.7107C110.925 28.7359 110.744 29.1255 110.544 29.5764C110.343 30.0273 110.05 30.6794 109.894 31.0255C109.249 32.4463 109.181 32.6064 109.208 32.631C109.223 32.6451 109.333 32.6642 109.452 32.6733L109.668 32.69L109.918 32.1622L110.168 31.6345L111.25 31.6446L112.332 31.6547L112.429 31.8454C112.483 31.9503 112.585 32.1776 112.656 32.3507L112.785 32.6653L112.979 32.6648C113.372 32.6637 113.367 32.689 113.095 32.0995C112.564 30.9499 112.367 30.5186 112.064 29.8433C111.89 29.4553 111.704 29.0401 111.649 28.9207C111.568 28.7407 111.441 28.5994 111.388 28.6301C111.382 28.634 111.287 28.6434 111.179 28.651ZM115.599 28.6612C115.105 28.6717 114.68 28.6941 114.653 28.7111C114.602 28.7443 114.593 28.8568 114.63 28.9949C114.652 29.0792 114.663 29.0807 115.257 29.0807C115.59 29.0807 115.906 29.0974 115.96 29.1178L116.058 29.155V30.9102V32.6653H116.287H116.517L116.519 31.3783C116.521 29.7886 116.534 29.1654 116.564 29.1351C116.577 29.1223 116.885 29.1004 117.249 29.0867L117.912 29.0616L117.923 28.8614L117.935 28.6612L117.55 28.6564C117.339 28.6538 117.016 28.6495 116.832 28.6469C116.648 28.6442 116.093 28.6507 115.599 28.6612ZM119.934 28.678C119.887 28.7124 119.88 29.0075 119.889 30.6823L119.899 32.6462H120.147H120.396L120.406 30.6866C120.413 29.2402 120.404 28.713 120.371 28.6736C120.32 28.6118 120.02 28.6147 119.934 28.678ZM129.078 28.6492C129.051 28.6938 129.042 29.4023 129.048 31.1876L129.052 32.6653H129.296C129.459 32.6653 129.545 32.6494 129.554 32.6176C129.562 32.5914 129.568 31.9245 129.568 31.1356V29.7013L129.706 29.82C129.832 29.9277 130.58 30.8243 131.114 31.5063C131.413 31.8893 131.597 32.1119 131.858 32.4096L132.085 32.6688L132.279 32.6575L132.472 32.6462L132.472 30.6713C132.472 28.4835 132.49 28.6248 132.218 28.6236C131.937 28.6225 131.956 28.506 131.956 30.1525C131.956 30.9682 131.948 31.6357 131.937 31.6357C131.905 31.6357 131.688 31.381 131.187 30.7586C130.925 30.4335 130.497 29.9052 130.235 29.5847C129.973 29.2642 129.716 28.9442 129.663 28.8737C129.611 28.8032 129.54 28.7279 129.507 28.7065C129.42 28.6514 129.103 28.6091 129.078 28.6492ZM74.9069 30.6492L74.9168 32.6462L75.1504 32.6574L75.384 32.6687L75.408 32.524C75.4212 32.4444 75.4321 32.1605 75.4324 31.8931L75.4328 31.4069H76.0791H76.7256L76.8339 31.5587C76.8936 31.6423 77.0955 31.9254 77.2825 32.188C77.6569 32.7132 77.6451 32.7061 78.0395 32.6411L78.1813 32.6177L77.9921 32.3841C77.8203 32.172 77.229 31.3408 77.229 31.3115C77.229 31.3048 77.3021 31.2639 77.3914 31.2206C77.6532 31.0938 77.8349 30.9193 77.9661 30.6688C78.0825 30.4466 78.0888 30.4135 78.0864 30.0306C78.0843 29.6908 78.0705 29.601 77.9991 29.4645C77.8636 29.2051 77.7205 29.0469 77.5156 28.9299C77.1385 28.7146 76.9922 28.6912 75.9006 28.6709L74.897 28.6522L74.9069 30.6492ZM36.7184 29.0967C35.9035 29.2451 35.3723 29.9325 35.4295 30.7646C35.4713 31.3736 35.8428 31.8867 36.4068 32.1146C36.6187 32.2002 36.7221 32.2177 37.0269 32.22C37.3698 32.2225 37.4106 32.2141 37.6795 32.0867C38.0417 31.9151 38.2907 31.6762 38.4406 31.3565C38.8319 30.5222 38.5218 29.624 37.704 29.2229C37.3791 29.0636 37.0981 29.0276 36.7184 29.0967ZM64.5454 29.0855C64.105 29.1585 63.6394 29.4741 63.4193 29.8488C63.1939 30.2326 63.1515 30.7887 63.315 31.2179C63.6878 32.1969 64.9357 32.5377 65.79 31.8939C66.0422 31.7039 66.1679 31.5383 66.2851 31.2424C66.4702 30.7751 66.4294 30.2466 66.1757 29.8243C66.0234 29.5707 65.9346 29.4774 65.7053 29.3302C65.3625 29.1101 64.9379 29.0205 64.5454 29.0855ZM99.7009 29.0963C99.45 29.143 99.069 29.3242 98.9044 29.4753C98.4866 29.8586 98.3032 30.5202 98.4559 31.0928C98.7359 32.1421 100.074 32.5692 100.985 31.8998C101.61 31.4398 101.772 30.4106 101.321 29.7606C101.09 29.429 100.743 29.1879 100.4 29.1211C100.054 29.0539 99.9486 29.0501 99.7009 29.0963ZM124.466 29.0863C124.35 29.1049 124.147 29.174 124.014 29.2398C122.834 29.823 122.857 31.5275 124.052 32.0732C124.47 32.2645 124.874 32.278 125.322 32.1155C125.663 31.9917 125.898 31.7946 126.103 31.4614C126.436 30.9203 126.4 30.2186 126.013 29.6937C125.664 29.2205 125.072 28.9883 124.466 29.0863ZM75.4254 29.1094C75.4189 29.1251 75.4223 29.5497 75.4328 30.0531L75.4519 30.9683L76.1398 30.9656C76.8932 30.9626 77.0247 30.9327 77.2972 30.7029C77.4752 30.5528 77.5383 30.4081 77.562 30.0956C77.5986 29.6118 77.4148 29.3421 76.9233 29.1585C76.7767 29.1037 75.4456 29.0601 75.4254 29.1094ZM111.181 29.3571C111.116 29.4673 111.053 29.5851 111.041 29.619C111.029 29.653 110.869 30.018 110.686 30.4302C110.502 30.8424 110.359 31.1866 110.368 31.1952C110.377 31.2038 110.78 31.2163 111.264 31.223L112.144 31.2353L112.098 31.1018C112.052 30.97 111.97 30.7785 111.595 29.9196C111.489 29.6784 111.383 29.4081 111.36 29.319C111.336 29.2299 111.312 29.1569 111.307 29.1569C111.303 29.1569 111.246 29.247 111.181 29.3571ZM7.81998 30.2865C7.57398 30.3884 7.54069 30.6443 7.71416 31.0998C7.90654 31.6051 8.12385 31.9385 8.51134 32.3231C9.19669 33.0033 9.94163 33.3771 10.9424 33.5428C11.7451 33.6757 12.6543 33.6131 13.3488 33.377C14.1676 33.0987 14.9193 32.5634 15.3927 31.9217C15.6904 31.518 15.8283 31.2468 15.9159 30.8925C15.9723 30.6643 15.9734 30.6163 15.9253 30.4772C15.8818 30.3519 15.8436 30.3108 15.737 30.2745C15.6369 30.2404 14.6419 30.229 11.7815 30.2288C8.45015 30.2287 7.94186 30.2361 7.81998 30.2865Z" fill="#00609C"/>
</svg>
