<svg width="2377" height="720" viewBox="0 0 2377 720" fill="none" xmlns="http://www.w3.org/2000/svg">
<path fill-rule="evenodd" clip-rule="evenodd" d="M290.161 61.8683C284.843 62.3203 269.353 65.122 262.886 66.8022C250.046 70.1376 237.822 74.5899 228.061 79.4872C193.99 96.5803 166.901 122.631 150.669 153.914C139.944 174.583 136.216 185.683 131.726 210.314C131.086 213.824 130.264 221.926 129.901 228.318C127.319 273.683 138.485 309.256 169.596 354.78C191.046 386.167 200.309 410.433 203.366 443.255C204.635 456.873 206.686 462.219 212.653 467.471C214.087 468.732 217.031 470.653 219.197 471.74L223.134 473.715L305.54 473.888C367.383 474.017 388.814 473.888 391.427 473.372C396.075 472.453 402.196 469.217 404.962 466.216C409.911 460.849 411.395 456.862 412.576 445.752C414.101 431.423 415.108 424.606 416.68 417.987C421.421 398.022 429.834 379.609 444.235 357.679C457.773 337.063 463.169 328.203 467.953 318.733C478.169 298.513 483.049 282.945 486.12 260.79C487.555 250.425 487.553 228.538 486.113 217.566C481.552 182.797 470.566 155.899 449.856 128.799C438.933 114.505 421.095 98.7525 404.195 88.4753C386.51 77.7205 365.474 69.1095 348.406 65.6383C331.733 62.2472 328.421 61.9124 310.182 61.7761C300.607 61.7047 291.597 61.7459 290.161 61.8683ZM290.742 78.1034C278.327 79.2162 260.549 83.5188 247.618 88.5414C201.609 106.411 166.525 144.073 152.014 191.168C147.806 204.828 145.08 223.567 145.081 238.832C145.084 264.334 150.646 287.781 162.206 311.014C168.007 322.672 169.785 325.564 186.08 349.847C193.139 360.367 196.188 365.513 200.494 374.174C212.303 397.922 217.305 416.14 219.064 441.805C219.583 449.375 220.326 452.1 222.593 454.747C224.32 456.765 225.038 457.14 228.252 457.699C232.481 458.435 245.409 458.549 246.495 457.86C247.072 457.493 247.192 445.766 247.075 401.157L246.927 344.915L241.265 344.811C233.063 344.66 228.457 342.393 226.051 337.324C225.275 335.689 225.092 331.241 224.828 307.668C224.657 292.415 224.4 279.413 224.256 278.775C224.113 278.137 223.018 276.944 221.824 276.124C220.629 275.303 218.871 273.502 217.917 272.121C216.306 269.788 216.168 269.172 215.973 263.459L215.764 257.309L217.742 254.441C220.029 251.127 224.211 248.038 227.682 247.1C232.749 245.731 239.236 247.512 243.627 251.478C246.188 253.791 248.688 258.273 248.171 259.622C247.993 260.085 248.098 260.617 248.404 260.805C249.349 261.39 249.016 266.105 247.799 269.356C246.559 272.668 243.271 276.745 241.839 276.745C241.361 276.745 240.812 277.332 240.619 278.05C240.094 280.009 240.199 326.237 240.731 327.074C241.028 327.541 243.439 327.921 247.541 328.147C255.464 328.583 257.665 329.125 259.698 331.137C263.369 334.773 263.148 330.891 263.466 397.421L263.757 458.05H269.85H275.943V342.323V226.596L269.85 225.89C261.662 224.94 256.987 223.516 250.911 220.122C244.587 216.588 237.593 209.866 237.01 206.761C236.092 201.869 238.341 197.887 242.636 196.797C244.63 196.291 245.164 196.392 246.97 197.617C248.103 198.385 249.993 199.951 251.17 201.095C254.482 204.313 262.755 207.993 269.407 209.204C272.514 209.771 275.256 210.035 275.5 209.791C276.192 209.099 276.379 148.409 275.705 142.905C274.978 136.966 273.984 134.989 270.666 132.886C262.952 127.994 250.868 130.473 242.93 138.576C237.95 143.659 235.537 147.736 233.475 154.55C232.488 157.814 232.361 157.605 237.421 161.08C242.938 164.87 244.037 166.782 243.794 172.168C243.706 174.137 239.331 178.114 237.254 178.114C236.321 178.114 233.675 177.089 231.376 175.837C223.032 171.29 216.977 171.032 210.295 174.938C207.692 176.46 202.689 181.924 201.151 184.925C198.487 190.124 197.938 199.324 199.868 206.431C201.089 210.926 201.222 211.013 206.131 210.512C218.446 209.254 220.28 209.235 222.157 210.344C224.099 211.49 225.545 214.161 224.841 215.3C224.563 215.749 224.649 215.855 225.075 215.591C225.444 215.364 225.745 215.438 225.745 215.757C225.745 216.077 225.496 216.492 225.191 216.68C224.885 216.869 224.783 217.407 224.963 217.876C225.596 219.527 224.581 221.476 222.301 222.984C220.252 224.34 219.453 224.504 215.056 224.472C209.192 224.429 203.194 226.089 199.096 228.89C194.818 231.814 189.567 238.75 188.076 243.446C184.165 255.758 185.822 269.669 192.543 280.965C195.576 286.062 201.806 292.865 206.615 296.329C211.577 299.904 213.559 302.445 213.559 305.232C213.559 310.927 209.104 314.405 203.976 312.713C199.075 311.096 187.195 299.996 181.244 291.473C176.276 284.359 172.326 273.77 170.908 263.764C168.55 247.135 173.81 231.188 185.372 219.912C186.831 218.489 188.024 217.003 188.024 216.609C188.024 216.215 187.531 215.029 186.928 213.973C184.935 210.488 183.806 202.568 184.183 194.728C184.369 190.856 184.623 187.035 184.747 186.237C184.872 185.439 185.011 184.264 185.057 183.626C185.127 182.646 185.235 182.6 185.747 183.336C186.195 183.979 186.253 183.695 185.967 182.248C185.699 180.895 185.775 180.411 186.215 180.683C186.583 180.91 186.738 180.758 186.585 180.32C186.272 179.431 189.888 172.759 192.357 169.672C195.035 166.322 201.401 161.466 205.629 159.55C207.74 158.593 211.303 157.495 213.545 157.11C217.07 156.506 217.621 156.248 217.621 155.199C217.621 152.684 220.706 143.426 222.959 139.179C228.76 128.245 242.106 117.343 251.57 115.807C251.889 115.755 252.48 115.507 252.883 115.255C253.634 114.786 265.231 113.703 265.83 114.046C266.013 114.151 267.754 114.493 269.698 114.806C274.7 115.611 279.234 117.945 283.445 121.884C287.664 125.829 290.37 130.515 291.271 135.433C291.715 137.852 291.917 185.452 291.953 295.562C291.981 381.739 292.177 453.554 292.388 455.149L292.773 458.05L298.134 458.216L303.495 458.383L303.647 363.647L303.799 268.912L305.649 265.141C308.828 258.659 313.724 254.791 320.334 253.538C322.019 253.219 332.203 252.957 342.964 252.957H362.53L362.83 247.01C362.995 243.74 363.073 237.017 363.005 232.071L362.88 223.078L359.239 219.497C355.202 215.526 354.648 214.045 354.602 207.092C354.558 200.503 358.343 194.88 364.152 192.903C371.644 190.354 378.463 191.585 383.068 196.317C385.981 199.308 388.181 204.181 388.212 207.703C388.246 211.629 385.595 216.738 381.847 219.966L378.773 222.613L378.901 237.614C378.971 245.865 379.158 252.823 379.314 253.076C379.471 253.33 381.234 253.537 383.232 253.537C385.23 253.537 388.163 253.923 389.75 254.394C398.264 256.922 400.285 268.087 393.206 273.485C389.778 276.1 387.82 276.638 383.463 276.163C379.275 275.706 378.298 275.227 374.036 271.539L371.28 269.153L347.695 269.323C322.597 269.503 321.449 269.63 320.525 272.336C320.296 273.006 320.156 305.275 320.214 344.045C320.272 382.815 320.323 424.392 320.329 436.438L320.338 458.34H325.851H331.364L331.4 417.002C331.42 394.267 331.565 374.49 331.723 373.054C332.106 369.576 334.355 366.845 338.04 365.385C340.511 364.406 342.012 364.266 348.193 364.439L355.447 364.641L355.602 349.976L355.757 335.31L352.864 332.646C348.68 328.793 347.34 325.708 347.358 319.968C347.374 314.582 348.143 312.736 351.957 308.922C355.306 305.574 358.586 303.993 362.942 303.626C369.38 303.084 375.639 306.901 379.061 313.457C380.057 315.363 380.336 316.871 380.319 320.258C380.288 326.826 378.731 329.593 372.132 334.814C371.582 335.25 371.406 339.399 371.406 351.978C371.406 363.016 371.178 369.33 370.724 370.845C369.928 373.502 366.233 377.92 363.722 379.218C362.571 379.813 359.486 380.252 354.685 380.504L347.395 380.886L347.546 419.178C347.63 440.238 347.904 457.681 348.155 457.94C348.406 458.198 357.592 458.329 368.569 458.23C391.536 458.023 391.772 457.976 394.804 453.028C396.328 450.541 396.524 449.549 397.268 440.554C398.412 426.709 399.068 422.418 401.646 411.926C407.368 388.637 415.937 370.458 433.175 345.037C450.162 319.987 454.563 312.003 462.584 291.687C464.236 287.502 466.938 277.293 468.534 269.202C471.058 256.408 471.831 239.957 470.634 224.556C470.081 217.453 467.832 204.131 466.319 199.001C465.896 197.565 464.964 194.301 464.247 191.749C459.563 175.042 449.181 154.998 437.049 139.243C431.921 132.583 418.899 119.584 411.508 113.749C387.77 95.0046 362.677 84.0317 333.105 79.4634C326.945 78.5119 321.86 78.2119 309.312 78.0611C300.534 77.9561 292.178 77.9746 290.742 78.1034ZM351.095 114.295C343.678 114.921 337.562 117.454 332.025 122.193C329.13 124.671 327.493 127.137 325.523 131.99L324.11 135.471V189.138V242.804L325.462 244.698C327.032 246.9 329.482 248.316 331.719 248.316C333.698 248.316 338.069 245.794 339.043 244.092C339.616 243.088 339.843 231.268 340.069 190.588C340.282 152.285 340.54 138.063 341.037 137.212C342.185 135.246 345.479 132.382 347.613 131.495C352.823 129.328 360.255 130.063 367.09 133.419C373.485 136.559 379.749 144.489 382.192 152.537C383.666 157.39 383.442 158.013 379.277 160.643C372.456 164.95 370.555 168.177 372.241 172.589C373.315 175.401 376.766 178.114 379.268 178.114C380.096 178.114 381.917 177.327 383.316 176.365C389.782 171.918 396.033 170.99 402.73 173.485C405.648 174.571 407.349 175.734 410.326 178.675C413.613 181.922 414.426 183.159 415.998 187.301C418.426 193.702 418.552 199.863 416.384 206.068C415.587 208.347 414.795 210.354 414.622 210.525C414.451 210.697 412.426 210.459 410.123 209.996C404.451 208.855 402.585 209.124 400.135 211.435C398.281 213.183 398.101 213.639 398.101 216.599C398.101 219.394 398.348 220.128 399.875 221.867C401.282 223.468 402.214 223.957 404.373 224.225C411.739 225.136 416.88 227.621 421.221 232.37C426.699 238.362 429.481 245.356 430.333 255.278C431.056 263.692 427.5 275.488 421.644 284.104C419.798 286.82 412.975 293.877 410.376 295.76C404.134 300.281 402.753 302.184 402.747 306.278C402.744 308.524 403.037 309.113 405.158 311.13C407.413 313.275 407.753 313.408 410.337 313.16C412.487 312.953 413.917 312.288 416.765 310.173C421.532 306.631 427.75 300.555 431.084 296.18C432.543 294.266 433.882 292.569 434.06 292.409C434.778 291.764 437.545 287.19 439.197 283.919C442.755 276.873 445.146 268.792 445.612 262.24C446.84 244.971 443.055 232.922 433.026 222.177C428.093 216.892 428.072 216.857 428.81 215.04C431.889 207.457 432.023 206.65 432.016 195.81C432.009 185.981 431.92 185.136 430.507 181.455C425.431 168.229 414.5 158.943 401.764 157.037C399.067 156.634 398.786 156.324 398.381 153.298C397.929 149.924 395.646 142.985 393.771 139.287C389.696 131.247 381.589 123.282 372.804 118.687C368.075 116.214 366.635 115.787 357.479 114.139C356.681 113.996 353.808 114.066 351.095 114.295ZM2101.64 125.135C2084.57 126.62 2068.77 139.804 2063.88 156.648C2062.35 161.913 2062.34 173.26 2063.85 179.275C2066.82 191.034 2074.72 200.824 2086.27 207.046C2092.37 210.336 2097.17 211.39 2105.99 211.377C2114.53 211.365 2118.7 210.429 2125.15 207.077C2136.88 200.991 2145.77 189.541 2148.14 177.487C2150.71 164.398 2148.17 152.822 2140.47 142.532C2135.03 135.27 2127.02 129.405 2119.05 126.853C2116.34 125.985 2106.78 124.632 2104.83 124.84C2104.35 124.891 2102.91 125.024 2101.64 125.135ZM1076.32 177.478L1072.96 177.824L1072.84 217.276L1072.73 256.728L1057.35 257.018L1041.97 257.309L1042.18 284.867C1042.29 300.024 1042.48 312.528 1042.6 312.653C1042.71 312.778 1049.3 312.826 1057.23 312.761C1068.67 312.667 1071.79 312.803 1072.3 313.418C1072.75 313.966 1073.01 327.803 1073.19 360.594C1073.43 403.628 1073.53 407.521 1074.62 414.247C1079.74 445.946 1093.96 464.767 1118.86 472.795C1136.27 478.408 1164.11 477.631 1182.99 471.007C1187.05 469.583 1198.43 464.72 1199.15 464.105C1199.59 463.722 1195.53 449.502 1189.64 430.782C1189.03 428.867 1187.06 422.471 1185.25 416.567C1183.45 410.664 1181.88 405.731 1181.77 405.605C1181.65 405.479 1179.71 406.205 1177.44 407.218C1167.13 411.827 1158.49 411.898 1154 407.411C1151.57 404.985 1149.44 400.728 1148.07 395.579C1147.21 392.352 1147.06 387.17 1146.87 352.646L1146.65 313.383L1151.76 313.142C1154.57 313.01 1164.62 312.925 1174.1 312.953L1191.32 313.006L1191.51 308.654C1191.61 306.261 1191.61 293.664 1191.51 280.661L1191.33 257.018H1169.04H1146.75L1146.59 217.615C1146.5 195.942 1146.21 177.993 1145.94 177.727C1145.39 177.177 1081.47 176.948 1076.32 177.478ZM217.331 219.887C217.528 220.206 217.951 220.467 218.27 220.467C218.589 220.467 218.689 220.206 218.491 219.887C218.294 219.568 217.872 219.307 217.552 219.307C217.233 219.307 217.133 219.568 217.331 219.887ZM672.013 251.491C671.534 251.605 668.401 252.017 665.049 252.408C647.369 254.467 630.06 262.668 615.729 275.776C612.382 278.837 609.449 281.149 609.213 280.912C608.977 280.676 608.712 275.269 608.626 268.896L608.468 257.309L573.358 257.148C554.048 257.06 537.661 257.13 536.943 257.305L535.638 257.621V418.319V579.017H572.486H609.333L609.481 514.931L609.629 450.846L614.863 454.738C624.659 462.022 626.373 463.128 633.096 466.491C656.621 478.264 690.237 480.085 715.828 470.971C735.095 464.109 749.452 452.969 763.879 433.687C772.121 422.671 779.319 406.809 782.528 392.594C783.182 389.698 784.261 391.267 786.081 397.76C793.359 423.713 809.526 446.563 830.505 460.548C851.194 474.338 874.091 479.041 902.933 475.423C912.989 474.161 920.98 471.688 930.817 466.794C938.09 463.175 942.868 459.875 950.986 452.863C954.886 449.493 958.346 446.736 958.675 446.736C959.066 446.736 959.273 450.855 959.273 458.63V470.524H995.543H1031.81V363.771V257.018H997.655C978.868 257.018 962.292 257.184 960.818 257.386L958.139 257.753L957.98 267.613L957.822 277.472L952.889 273.551C937.709 261.482 924.482 255.544 906.173 252.577C897.573 251.184 880.691 250.919 872.515 252.049C859.838 253.803 851.336 256.374 840.826 261.634C814.743 274.688 795.515 299.031 786.041 330.991C785.189 333.863 784.277 336.438 784.014 336.713C783.751 336.989 782.087 332.681 780.316 327.14C775.972 313.549 770.808 303.245 763.343 293.28C746.302 270.528 725.842 257.487 699.579 252.637C694.852 251.764 674.431 250.915 672.013 251.491ZM1285.41 252.392C1259.33 256.203 1236.93 267.99 1217.47 288.134C1197.2 309.109 1186.74 334.778 1186.76 363.481C1186.79 398.075 1199.56 425.261 1226.83 448.782C1237.63 458.097 1249.8 465.318 1262.37 469.867C1276.46 474.97 1286.62 476.573 1304.56 476.525C1324.39 476.472 1339.24 474.366 1353.8 469.546C1378.2 461.468 1396.96 447.461 1410.86 426.946L1414.63 421.369L1388.76 408.506C1374.53 401.431 1362.54 395.651 1362.11 395.662C1361.68 395.672 1359.2 397.664 1356.59 400.088C1350.74 405.536 1343.68 410.913 1339.78 412.891C1338.15 413.713 1333.81 415.168 1330.13 416.124C1323.85 417.753 1322.7 417.867 1311.82 417.94L1300.21 418.018L1293.42 415.795C1281.75 411.974 1272.51 404.779 1267.91 395.929C1265.77 391.827 1263.76 384.34 1263.06 377.84L1262.67 374.214L1278.54 374.125C1287.27 374.076 1321.05 374.045 1353.6 374.056C1386.16 374.067 1414.07 373.947 1415.63 373.79L1418.47 373.504L1418.13 359.79C1417.95 352.186 1417.4 343.62 1416.92 340.564C1413.12 316.708 1402.71 295.363 1388.31 281.894C1384.36 278.203 1373.06 269.904 1367.94 266.937C1358.52 261.47 1347.36 257.179 1335.47 254.443C1321.5 251.231 1299.52 250.33 1285.41 252.392ZM1556.15 252.137C1540.99 254.493 1525.31 262.398 1512.03 274.381C1508.84 277.261 1506.06 279.625 1505.86 279.632C1505.05 279.662 1504.79 276.597 1504.78 267.043L1504.78 257.052L1469.23 257.039C1449.68 257.032 1433.1 257.186 1432.38 257.38L1431.07 257.734V364.129V470.524H1467.93H1504.78V411.658C1504.78 373.038 1504.99 350.74 1505.41 346.824C1506.07 340.645 1508.17 334.134 1510.69 330.486C1518.44 319.269 1527.77 312.287 1538.74 309.505C1546.33 307.581 1552.3 307.59 1559.01 309.534C1565.05 311.284 1567.43 312.445 1571.4 315.584C1579.88 322.283 1585.14 332.136 1586.58 344.03C1586.96 347.113 1587.18 371.609 1587.18 409.735V470.524H1624.03H1660.88L1660.88 400.177C1660.87 358.287 1660.64 327.132 1660.29 323.159C1658.92 307.297 1655.47 297.412 1647.53 286.591C1637.36 272.733 1625.19 264.224 1606.15 257.661C1589.88 252.051 1570.49 249.91 1556.15 252.137ZM1879.87 252.387C1853.93 256.312 1832.14 269.594 1815.52 291.607C1804.16 306.656 1798.31 319.669 1794.41 338.533C1791.35 353.337 1791.23 373.403 1794.12 388.429C1797.48 405.963 1804.32 421.649 1814.57 435.371C1828.2 453.606 1843.09 464.81 1862.4 471.369C1873.64 475.188 1888.94 477.337 1899.98 476.647C1920.28 475.378 1931.53 472.335 1945.15 464.432C1952.17 460.351 1953.83 459.173 1958.88 454.674C1963.91 450.187 1968.16 446.736 1968.66 446.736C1968.86 446.736 1969.03 452.089 1969.03 458.63V470.524H2005.3H2041.57V363.771V257.018L2006.9 257.025C1987.83 257.028 1971.25 257.193 1970.05 257.391L1967.87 257.751V267.248C1967.87 272.666 1967.64 276.745 1967.34 276.745C1967.04 276.745 1966.06 276.133 1965.16 275.385C1952.78 265.126 1940.02 258.266 1927.25 255.001C1922.94 253.9 1916.33 252.598 1912.57 252.108C1903.31 250.904 1888.85 251.028 1879.87 252.387ZM2070.44 257.445L2067.69 257.662L2067.83 363.948L2067.98 470.234L2104.62 470.383L2141.26 470.532L2141.59 468.062C2141.77 466.704 2141.81 427.344 2141.67 380.596C2141.53 333.848 2141.41 286.92 2141.4 276.309L2141.39 257.018L2107.3 257.123C2088.54 257.18 2071.96 257.325 2070.44 257.445ZM1296.15 299.34C1286.42 301.389 1281.79 303.659 1275.87 309.277C1270.93 313.968 1268.13 318.931 1266.27 326.297C1264.71 332.436 1264.74 332.805 1266.92 333.239C1269.19 333.694 1346.03 333.723 1346.49 333.268C1347.18 332.574 1343.91 322.24 1341.56 317.72C1335.34 305.743 1323.44 299.014 1307.47 298.453C1303.02 298.297 1299.96 298.537 1296.15 299.34ZM647.93 314.395C635.455 316.716 626.582 321.941 618.759 331.571C614.67 336.604 611.598 342.583 609.814 348.977C608.127 355.023 607.715 368.389 609.018 374.818C611.142 385.297 615.634 393.498 623.32 400.925C633.089 410.365 645.528 414.756 660.597 414.085C669.227 413.7 672.906 412.766 680.5 409.037C689.408 404.661 697.706 396.45 702.176 387.589C704.875 382.24 705.599 379.915 706.56 373.514C709.066 356.839 705.822 342.105 697.326 331.571C694.373 327.91 687.446 321.642 684.78 320.22C674.119 314.53 659.564 312.229 647.93 314.395ZM900.37 314.417C889.97 316.255 880.914 320.977 873.844 328.249C864.145 338.226 859.906 349.276 859.884 364.641C859.862 380.063 864.786 391.943 875.297 401.828C880.554 406.772 887.345 410.454 895.147 412.591C901.357 414.291 917.317 414.478 923.478 412.923C928.575 411.636 937.154 407.328 941.468 403.889C949.097 397.807 955.311 387.936 957.877 377.828C959.894 369.876 959.875 358.286 957.831 350.23C955.572 341.328 952.415 335.595 946.145 329.016C937.938 320.404 930.182 316.36 918.09 314.388C910.059 313.078 907.924 313.081 900.37 314.417ZM1915.64 313.575C1915.17 313.689 1912.68 314.103 1910.13 314.494C1901.92 315.752 1894.88 318.96 1887.62 324.746C1879.8 330.982 1874.92 338.548 1871.74 349.364C1870.3 354.253 1870.14 355.679 1870.12 364.061C1870.1 371.073 1870.34 374.266 1871.1 377.115C1877.49 401.137 1894.97 414.272 1920.51 414.239C1938.59 414.215 1953.4 405.957 1962.61 390.749C1971.04 376.856 1971.67 355.223 1964.09 340.198C1957.4 326.907 1945.56 317.821 1931.02 314.811C1926.93 313.964 1917.26 313.187 1915.64 313.575ZM1718.62 383.45C1710.76 385.442 1703.5 389.566 1697.25 395.603C1690.34 402.272 1686.14 409.618 1684.03 418.734C1682.97 423.353 1682.83 425.237 1683.12 431.527C1683.48 439.601 1684.55 444.167 1687.56 450.47C1692.57 460.97 1704.29 471.088 1715.72 474.78C1720.03 476.172 1730.17 476.964 1735.55 476.329C1752 474.385 1765.58 464.811 1772.78 450.078C1779.82 435.67 1779.05 419.031 1770.7 404.776C1768.37 400.807 1761.57 393.436 1757.92 390.925C1753.36 387.786 1746.49 384.717 1741.35 383.519C1734.81 381.994 1724.5 381.963 1718.62 383.45ZM244.026 489.67C229.509 489.92 226.943 490.098 225.356 490.966C221.678 492.978 219.433 497.824 220.445 501.563C221.334 504.845 224.189 508.087 226.792 508.771C229.462 509.473 381.993 509.602 386.309 508.906C388.67 508.525 389.666 508.01 390.952 506.502C393.452 503.57 393.665 503.009 393.702 499.252C393.743 495.149 392.432 492.931 388.739 490.856L386.443 489.566L323.649 489.473C289.113 489.421 253.282 489.51 244.026 489.67ZM685.442 497.858C680.676 498.774 672.9 501.708 672.029 502.918C671.861 503.152 670.94 503.943 669.982 504.675C665.106 508.405 660.67 516.252 659.937 522.45C659.041 530.015 660.135 537.601 662.858 542.715C666.169 548.931 672.768 554.348 680.256 556.995C684.805 558.603 685.47 558.684 692.325 558.462C698.159 558.273 700.401 557.94 703.779 556.765C711.435 554.101 717.895 548.174 721.18 540.802C722.758 537.259 723.491 532.344 722.531 531.75C722.146 531.512 722.259 530.885 722.849 529.984C723.588 528.857 723.685 527.715 723.351 524.068C722.112 510.534 711.905 499.896 698.128 497.78C691.878 496.82 690.81 496.827 685.442 497.858ZM1646.08 497.039C1640.8 497.689 1635.5 499.153 1631.92 500.953C1627.37 503.248 1621.77 508.609 1619.41 512.938C1615.22 520.635 1614.86 532.824 1618.57 541.253C1622.51 550.213 1632.69 557.342 1643.25 558.549C1660.86 560.563 1675.45 551.243 1679.08 535.649C1679.81 532.539 1679.81 532.022 1679.11 532.022C1678.66 532.022 1678.29 531.734 1678.29 531.38C1678.29 531.027 1678.67 530.882 1679.13 531.058C1680.33 531.522 1680.45 529.66 1679.61 523.61C1678.09 512.775 1671.71 504.05 1662.54 500.242C1657.25 498.043 1649.77 496.587 1646.08 497.039ZM2017.78 497.928C2010.22 499.189 2005.65 501.333 2000.74 505.929C1996.52 509.874 1994.54 513.231 1992.87 519.249C1990.01 529.567 1992.25 540.7 1998.64 547.884C2004.19 554.123 2012.91 558.472 2020.4 558.743C2024.45 558.89 2032.9 558.167 2033.74 557.602C2034.06 557.387 2035.36 556.865 2036.64 556.441C2046.18 553.271 2053.26 544.625 2055.13 533.864C2057.37 520.947 2052.76 509.38 2042.73 502.758C2035.34 497.871 2027.37 496.329 2017.78 497.928ZM753.11 497.672C750.722 497.831 750.421 497.989 750.875 498.839C751.306 499.647 766.884 546.438 769.891 555.955L770.761 558.711L774.922 558.702C777.211 558.697 779.354 558.501 779.684 558.267C780.015 558.032 782.292 551.836 784.744 544.496C793.573 518.065 795.681 512.003 796.45 510.83C796.879 510.174 797.335 509.126 797.462 508.501C797.588 507.876 798.107 509.323 798.615 511.716C799.123 514.109 802.777 525.597 806.735 537.244L813.932 558.421L818.279 558.588L822.626 558.755L823.368 556.847C823.777 555.798 825.181 551.676 826.489 547.687C827.797 543.699 832.068 530.84 835.98 519.114C840.212 506.433 842.824 497.774 842.426 497.747C842.058 497.723 841.235 497.591 840.597 497.454C838.43 496.989 835.869 497.773 835.202 499.106C834.43 500.649 831.254 509.928 824.284 531.007C821.462 539.543 818.955 546.527 818.715 546.527C817.559 546.527 814.876 539.52 808.387 519.549C801.708 498.992 801.59 498.681 800.184 497.946C798.117 496.865 794.801 497.036 793.673 498.282C793.14 498.87 790.393 506.115 787.567 514.382C784.741 522.648 781.857 530.978 781.157 532.893C780.457 534.807 779.402 537.81 778.814 539.565C777.325 544.006 776.272 546.527 775.905 546.527C775.519 546.527 775.794 547.302 766.655 520.469C762.481 508.211 758.993 498.111 758.905 498.022C758.553 497.67 755.717 497.498 753.11 497.672ZM878.028 497.733L876.577 498.138L876.665 512.614C876.713 520.577 876.778 534.222 876.81 542.937L876.867 558.783L880.494 558.602L884.121 558.421L884.226 548.848C884.284 543.582 884.349 533.411 884.371 526.245L884.411 513.215L887.062 515.802C889.587 518.267 898.45 529.017 910.96 544.786C914.124 548.775 918.088 553.54 919.771 555.375C922.696 558.566 922.952 558.711 925.672 558.711H928.516V528.29C928.516 497.903 928.515 497.87 927.298 497.484C925.257 496.836 921.127 497.716 920.827 498.862C920.681 499.421 920.62 509.591 920.693 521.462C920.765 533.333 920.673 543.046 920.488 543.046C919.973 543.046 916.772 539.332 911.372 532.468C908.678 529.043 905.971 525.649 905.358 524.926C904.745 524.202 900.152 518.519 895.152 512.296C882.684 496.78 882.375 496.519 878.028 497.733ZM1049.32 497.635C1047.28 497.885 1047.17 498.034 1039.58 510.423C1030.17 525.769 1027.61 529.684 1027.17 529.413C1026.9 529.242 1024.81 526.04 1022.54 522.295C1016.28 511.984 1010.77 503.006 1009.01 500.258L1007.42 497.792H1003.07H998.725L1001.43 501.998C1002.92 504.311 1004.58 506.857 1005.1 507.655C1005.63 508.453 1006.94 510.672 1008.02 512.587C1009.09 514.501 1011.06 517.765 1012.38 519.839C1013.71 521.913 1016.6 526.612 1018.81 530.282L1022.82 536.954L1023 547.832L1023.18 558.711H1026.59C1028.64 558.711 1030.18 558.429 1030.44 558.008C1030.68 557.622 1030.92 552.988 1030.98 547.71C1031.04 542.433 1031.36 537.462 1031.68 536.664C1032 535.866 1034.29 531.95 1036.77 527.961C1039.25 523.973 1043.62 516.793 1046.47 512.006C1049.33 507.22 1052.32 502.332 1053.12 501.144C1053.93 499.955 1054.43 498.585 1054.24 498.098C1053.91 497.228 1053.19 497.16 1049.32 497.635ZM1107.23 497.791C1095.11 499.711 1084.46 509.485 1082.38 520.575C1081.51 525.243 1081.61 532.304 1082.61 536.137C1083.91 541.188 1085.79 544.65 1089.32 548.509C1093.13 552.679 1096.03 554.65 1101.16 556.56C1115.73 561.985 1132.63 557.433 1140.23 546.044C1143.49 541.139 1144.96 537.326 1145.07 533.404C1145.11 532.166 1145.36 530.721 1145.63 530.193C1146.38 528.72 1145.1 520.198 1143.48 515.9C1142.69 513.791 1140.98 510.66 1139.68 508.943C1136.88 505.237 1130.4 500.797 1125.11 498.97C1120.97 497.535 1112.4 496.97 1107.23 497.791ZM1180.17 497.633L1178.51 497.881L1178.82 517.708C1178.99 528.612 1179.41 539.028 1179.76 540.854C1180.42 544.363 1182.94 549.208 1185.51 551.932C1186.36 552.831 1189.01 554.659 1191.4 555.994L1195.75 558.421L1203.88 558.408C1211.76 558.396 1212.12 558.34 1215.78 556.594C1223.92 552.706 1227.38 547.8 1228.82 538.103C1229.9 530.85 1230.11 498.109 1229.08 497.475C1228.74 497.263 1227.04 497.266 1225.31 497.482L1222.16 497.876L1222.14 515.094C1222.12 538.839 1221.5 542.524 1216.76 547.236C1212.77 551.192 1207.62 552.608 1200.66 551.656C1196.32 551.063 1193.21 549.411 1190.81 546.426C1186.87 541.522 1186.18 536.787 1186.18 514.603C1186.18 502.933 1185.99 498.416 1185.48 497.908C1184.8 497.221 1183.41 497.149 1180.17 497.633ZM1395.53 497.614L1393.93 497.869V528.29V558.711H1397.71H1401.49L1401.34 528.106L1401.19 497.502L1399.16 497.431C1398.04 497.392 1396.41 497.474 1395.53 497.614ZM1440.79 498.029C1439.93 498.882 1439.88 501.75 1440.17 528.405C1440.35 544.594 1440.7 558.064 1440.95 558.338C1441.21 558.611 1442.74 558.653 1444.35 558.43C1447.08 558.055 1447.32 557.894 1447.62 556.193C1447.81 555.184 1447.88 545.025 1447.79 533.618C1447.69 522.21 1447.76 512.876 1447.94 512.877C1448.74 512.877 1454.37 519.601 1470.66 539.999C1475.18 545.664 1479.04 550.429 1479.22 550.588C1479.41 550.748 1480.96 552.652 1482.66 554.821L1485.77 558.764L1488.98 558.592L1492.19 558.421L1492.09 536.954C1492.04 525.147 1492 511.63 1492 506.915L1492.01 498.343L1490.44 497.747C1489.58 497.418 1487.88 497.317 1486.67 497.522L1484.46 497.894V520.831C1484.46 541.543 1484.38 543.695 1483.56 543.017C1483.06 542.604 1475 532.716 1465.64 521.044C1456.28 509.372 1448.09 499.343 1447.44 498.758C1445.75 497.244 1441.98 496.831 1440.79 498.029ZM1530.6 498.517C1530.42 499.235 1530.35 513.007 1530.44 529.122L1530.6 558.421L1534.03 558.597C1536.21 558.71 1537.61 558.526 1537.88 558.09C1538.11 557.713 1538.3 547.639 1538.29 535.7C1538.29 523.762 1538.4 513.881 1538.54 513.741C1539.07 513.213 1545.51 520.526 1554.14 531.442C1559.05 537.665 1563.22 542.886 1563.39 543.046C1563.56 543.205 1565.35 545.425 1567.37 547.977C1569.38 550.53 1572.35 554.002 1573.96 555.694C1576.76 558.637 1577 558.761 1579.57 558.595L1582.25 558.421L1582.4 528.607C1582.51 505.738 1582.38 498.594 1581.84 497.937C1580.97 496.897 1575.64 497.332 1574.91 498.502C1574.66 498.909 1574.51 509.099 1574.58 521.144C1574.66 535.54 1574.51 542.983 1574.12 542.86C1573.5 542.659 1568.17 536.243 1554.1 518.746C1536.4 496.722 1536.97 497.297 1532.79 497.238C1531.31 497.218 1530.85 497.49 1530.6 498.517ZM1704.41 497.797C1704.41 498.187 1705.32 500.457 1706.44 502.842C1707.55 505.227 1708.47 507.28 1708.47 507.404C1708.47 507.627 1716.05 524.935 1718.62 530.572C1721.03 535.884 1721.82 537.706 1721.82 538.032C1721.82 538.209 1723.15 541.303 1724.77 544.906C1726.4 548.51 1728.23 552.633 1728.85 554.069C1730.76 558.527 1730.6 558.407 1734.98 558.589L1739.04 558.758L1741.45 553.558C1742.78 550.698 1743.87 548.209 1743.87 548.027C1743.87 547.844 1745.04 545.197 1746.48 542.144C1747.92 539.092 1749.09 536.431 1749.09 536.232C1749.09 536.033 1749.59 534.808 1750.2 533.511C1751.83 530.07 1758.78 514.023 1761.32 507.864C1762.52 504.949 1763.94 501.726 1764.46 500.705C1765.95 497.836 1765.3 497.013 1761.8 497.349C1759.97 497.524 1758.46 498.047 1757.8 498.727C1757.21 499.329 1755.52 502.695 1754.05 506.205C1748.28 519.904 1736 546.67 1735.45 546.742C1734.66 546.845 1732.02 541.475 1725.65 526.801C1719.51 512.634 1718.9 511.253 1715.42 503.449L1712.9 497.792H1709.57C1707.74 497.792 1705.83 497.634 1705.32 497.44C1704.8 497.237 1704.41 497.389 1704.41 497.797ZM1817.76 497.638C1816.11 497.754 1814.51 498.163 1814.21 498.546C1813.91 498.929 1811.16 504.856 1808.12 511.716C1805.07 518.577 1800.63 528.498 1798.25 533.763C1788.46 555.378 1787.43 557.814 1787.84 558.188C1788.07 558.404 1789.74 558.694 1791.54 558.833L1794.82 559.087L1798.62 551.057L1802.42 543.028L1818.84 543.182L1835.27 543.336L1836.75 546.237C1837.56 547.832 1839.11 551.291 1840.19 553.924L1842.15 558.711L1845.1 558.703C1851.07 558.687 1850.99 559.071 1846.86 550.103C1838.8 532.612 1835.8 526.051 1831.21 515.778C1828.56 509.874 1825.73 503.557 1824.91 501.74C1823.67 499.002 1821.74 496.852 1820.94 497.319C1820.84 497.378 1819.41 497.522 1817.76 497.638ZM1884.89 497.792C1877.39 497.952 1870.92 498.293 1870.52 498.551C1869.74 499.056 1869.6 500.769 1870.16 502.869C1870.51 504.152 1870.66 504.174 1879.69 504.174C1884.74 504.174 1889.54 504.429 1890.36 504.74L1891.85 505.305V532.008V558.711H1895.33H1898.81L1898.84 539.13C1898.88 514.945 1899.07 505.464 1899.53 505.002C1899.73 504.807 1904.41 504.475 1909.94 504.266L1920 503.884L1920.17 500.838L1920.35 497.792L1914.51 497.719C1911.31 497.679 1906.4 497.614 1903.6 497.574C1900.81 497.534 1892.39 497.632 1884.89 497.792ZM1950.71 498.047C1949.99 498.572 1949.89 503.061 1950.02 528.541L1950.17 558.421H1953.95H1957.72L1957.87 528.607C1957.98 506.601 1957.84 498.581 1957.34 497.981C1956.56 497.04 1952.02 497.085 1950.71 498.047ZM2089.56 497.61C2089.14 498.289 2089.01 509.067 2089.09 536.229L2089.16 558.711H2092.87C2095.34 558.711 2096.65 558.468 2096.79 557.985C2096.9 557.587 2096.99 547.44 2096.99 535.438V513.616L2099.09 515.422C2101 517.061 2112.36 530.701 2120.47 541.077C2125.02 546.904 2127.81 550.291 2131.77 554.821L2135.22 558.764L2138.16 558.592L2141.1 558.421L2141.1 528.374C2141.1 495.09 2141.36 497.238 2137.23 497.221C2132.96 497.203 2133.26 495.432 2133.26 520.481C2133.26 532.892 2133.13 543.046 2132.97 543.046C2132.49 543.046 2129.18 539.172 2121.58 529.702C2117.61 524.756 2111.1 516.719 2107.13 511.843C2103.15 506.966 2099.24 502.099 2098.45 501.025C2097.65 499.952 2096.58 498.807 2096.06 498.481C2094.75 497.643 2089.94 497 2089.56 497.61ZM1266.98 528.038L1267.13 558.421L1270.68 558.591L1274.23 558.762L1274.59 556.56C1274.79 555.35 1274.96 551.031 1274.96 546.962L1274.97 539.565H1284.78H1294.6L1296.24 541.876C1297.15 543.147 1300.22 547.455 1303.06 551.449C1308.74 559.439 1308.56 559.332 1314.55 558.342L1316.7 557.987L1313.83 554.432C1311.22 551.205 1302.24 538.56 1302.24 538.114C1302.24 538.012 1303.35 537.389 1304.71 536.731C1308.69 534.802 1311.44 532.147 1313.44 528.336C1315.2 524.955 1315.3 524.452 1315.26 518.627C1315.23 513.457 1315.02 512.091 1313.94 510.013C1311.88 506.067 1309.71 503.66 1306.6 501.881C1300.87 498.605 1298.65 498.248 1282.07 497.939L1266.83 497.656L1266.98 528.038ZM687.102 504.418C674.727 506.676 666.661 517.134 667.529 529.794C668.165 539.058 673.806 546.866 682.369 550.332C685.588 551.634 687.157 551.902 691.785 551.935C696.992 551.974 697.612 551.847 701.695 549.908C707.194 547.297 710.976 543.662 713.253 538.799C719.194 526.105 714.485 512.44 702.068 506.339C697.133 503.914 692.866 503.366 687.102 504.418ZM1109.65 504.248C1102.96 505.358 1095.89 510.16 1092.55 515.861C1089.12 521.7 1088.48 530.161 1090.96 536.69C1096.62 551.584 1115.57 556.77 1128.55 546.975C1132.37 544.084 1134.28 541.565 1136.06 537.062C1138.87 529.953 1138.25 521.913 1134.4 515.487C1132.09 511.629 1130.74 510.21 1127.26 507.971C1122.05 504.621 1115.61 503.259 1109.65 504.248ZM1643.47 504.411C1639.66 505.122 1633.88 507.88 1631.38 510.178C1625.03 516.009 1622.25 526.074 1624.57 534.786C1628.82 550.751 1649.14 557.248 1662.96 547.065C1672.47 540.067 1674.92 524.408 1668.07 514.518C1664.57 509.474 1659.3 505.805 1654.08 504.79C1648.83 503.767 1647.23 503.71 1643.47 504.411ZM2019.52 504.259C2017.77 504.544 2014.68 505.594 2012.66 506.594C1994.75 515.468 1995.09 541.4 2013.23 549.702C2019.59 552.614 2025.73 552.818 2032.52 550.346C2037.69 548.462 2041.27 545.463 2044.38 540.395C2049.44 532.163 2048.89 521.486 2043.01 513.5C2037.71 506.302 2028.73 502.768 2019.52 504.259ZM1274.86 504.612C1274.76 504.85 1274.81 511.31 1274.97 518.968L1275.26 532.893L1285.7 532.851C1297.14 532.805 1299.14 532.351 1303.28 528.854C1305.98 526.571 1306.94 524.369 1307.3 519.615C1307.86 512.255 1305.07 508.152 1297.6 505.358C1295.38 504.524 1275.16 503.862 1274.86 504.612ZM1817.79 508.38C1816.81 510.056 1815.86 511.849 1815.67 512.365C1815.49 512.881 1813.06 518.434 1810.28 524.705C1807.49 530.976 1805.32 536.214 1805.45 536.345C1805.58 536.476 1811.7 536.666 1819.06 536.768L1832.42 536.954L1831.72 534.923C1831.02 532.918 1829.78 530.005 1824.08 516.938C1822.48 513.268 1820.87 509.156 1820.51 507.8C1820.14 506.444 1819.79 505.334 1819.71 505.334C1819.64 505.334 1818.78 506.705 1817.79 508.38ZM248.286 522.52C244.551 524.071 244.045 527.963 246.679 534.894C249.601 542.581 252.9 547.654 258.784 553.505C269.191 563.853 280.503 569.54 295.699 572.061C307.889 574.083 321.694 573.13 332.24 569.538C344.673 565.304 356.087 557.161 363.275 547.397C367.796 541.256 369.89 537.129 371.221 531.739C372.078 528.268 372.094 527.537 371.363 525.421C370.704 523.515 370.123 522.889 368.505 522.337C366.984 521.819 351.876 521.644 308.441 521.642C257.855 521.64 250.137 521.752 248.286 522.52Z" fill="white"/>
</svg>
